<svg width="26" height="32" viewBox="0 0 26 32" fill="none" xmlns="http://www.w3.org/2000/svg">
<path d="M13.0061 15.5724C13.7805 15.5724 14.4414 15.2967 14.9888 14.7453C15.5361 14.1938 15.8098 13.5309 15.8098 12.7565C15.8098 11.9821 15.5341 11.3212 14.9826 10.7739C14.4312 10.2265 13.7682 9.95284 12.9939 9.95284C12.2195 9.95284 11.5586 10.2286 11.0113 10.78C10.4639 11.3314 10.1902 11.9944 10.1902 12.7688C10.1902 13.5431 10.4659 14.204 11.0174 14.7514C11.5689 15.2987 12.2318 15.5724 13.0061 15.5724ZM13 31.8491C8.80559 28.2145 5.6603 24.832 3.56413 21.7017C1.46799 18.5714 0.419922 15.6974 0.419922 13.0799C0.419922 9.23381 1.66405 6.12005 4.1523 3.73863C6.64052 1.35721 9.58976 0.166504 13 0.166504C16.4103 0.166504 19.3595 1.35721 21.8477 3.73863C24.336 6.12005 25.5801 9.23381 25.5801 13.0799C25.5801 15.6974 24.532 18.5714 22.4359 21.7017C20.3397 24.832 17.1944 28.2145 13 31.8491Z" fill="#79CBD0"/>
</svg>
