<svg width="26" height="32" viewBox="0 0 26 32" fill="none" xmlns="http://www.w3.org/2000/svg">
    <path d="M15.6985 15.4492L15.6985 15.4492C16.4311 14.7111 16.8098 13.7953 16.8098 12.756C16.8098 11.7141 16.427 10.798 15.6871 10.0636C14.949 9.33108 14.0332 8.95235 12.9939 8.95235C11.952 8.95235 11.0359 9.33516 10.3015 10.075C9.56893 10.8131 9.19021 11.729 9.19021 12.7683C9.19021 13.8102 9.57303 14.7262 10.3129 15.4606L10.3129 15.4606C11.051 16.1932 11.9668 16.5719 13.0061 16.5719C14.048 16.5719 14.9641 16.1891 15.6985 15.4492ZM4.84372 4.46059L4.84373 4.46058C7.1479 2.25532 9.85023 1.16602 13 1.16602C16.1498 1.16602 18.8521 2.25532 21.1563 4.46058L21.8259 3.76092L21.1563 4.46059C23.4235 6.63042 24.5801 9.47108 24.5801 13.0794C24.5801 15.4295 23.6371 18.1101 21.605 21.1448C19.6838 24.0138 16.8254 27.1393 13 30.5198C9.17457 27.1393 6.3162 24.0138 4.39504 21.1448C2.36296 18.1101 1.41992 15.4295 1.41992 13.0794C1.41992 9.47108 2.57655 6.63042 4.84372 4.46059Z" stroke="#9759FF" stroke-width="2"/>
</svg>
